<svg width="19" height="19" viewBox="0 0 19 19" fill="none" xmlns="http://www.w3.org/2000/svg">
<path d="M9.5 11.5228L2.42015 18.6027C2.15526 18.8676 1.81812 19 1.40875 19C0.999366 19 0.66223 18.8676 0.397338 18.6027C0.132446 18.3378 0 18.0006 0 17.5913C0 17.1819 0.132446 16.8447 0.397338 16.5798L7.47719 9.5L0.397338 2.42015C0.132446 2.15526 0 1.81812 0 1.40875C0 0.999366 0.132446 0.66223 0.397338 0.397338C0.66223 0.132446 0.999366 0 1.40875 0C1.81812 0 2.15526 0.132446 2.42015 0.397338L9.5 7.47719L16.5798 0.397338C16.8447 0.132446 17.1819 0 17.5913 0C18.0006 0 18.3378 0.132446 18.6027 0.397338C18.8676 0.66223 19 0.999366 19 1.40875C19 1.81812 18.8676 2.15526 18.6027 2.42015L11.5228 9.5L18.6027 16.5798C18.8676 16.8447 19 17.1819 19 17.5913C19 18.0006 18.8676 18.3378 18.6027 18.6027C18.3378 18.8676 18.0006 19 17.5913 19C17.1819 19 16.8447 18.8676 16.5798 18.6027L9.5 11.5228Z" fill="white"/>
</svg>
